<?xml version="1.0"?>
<svg width="440" height="440" xmlns="http://www.w3.org/2000/svg" xmlns:svg="http://www.w3.org/2000/svg">
 <defs>
  <radialGradient cx="0" cy="0" gradientTransform="matrix(-48,-185,123,-32,246.62628173828125,392.70001220703125)" gradientUnits="userSpaceOnUse" id="b" r="1">
   <stop stop-color="#fff" stop-opacity="0.4"/>
   <stop offset="1" stop-opacity="0.1"/>
  </radialGradient>
  <radialGradient cx="0" cy="0" gradientTransform="matrix(41,-310,229,30,224.79098510742188,314.29998779296875)" gradientUnits="userSpaceOnUse" id="c" r="1">
   <stop stop-color="#fff" stop-opacity="0.6"/>
   <stop offset="1" stop-color="#fff" stop-opacity="0.1"/>
  </radialGradient>
  <radialGradient cx="0" cy="0" gradientTransform="matrix(57,-261,178,39,191.8572235107422,259.29998779296875)" gradientUnits="userSpaceOnUse" id="d" r="1">
   <stop stop-color="#fff" stop-opacity="0.8"/>
   <stop offset="1" stop-color="#fff" stop-opacity="0.4"/>
  </radialGradient>
  <radialGradient cx="0" cy="0" gradientTransform="matrix(-79,-133,153,-90,262.1000061035156,427.20001220703125)" gradientUnits="userSpaceOnUse" id="e" r="1">
   <stop stop-color="#fff" stop-opacity="0.3"/>
   <stop offset="1" stop-opacity="0.3"/>
  </radialGradient>
  <radialGradient cx="0" cy="0" gradientTransform="matrix(-29,136,-92,-20,248.3475341796875,112.89999389648438)" gradientUnits="userSpaceOnUse" id="f" r="1">
   <stop stop-color="#fff" stop-opacity="0"/>
   <stop offset="1" stop-color="#fff" stop-opacity="0.2"/>
  </radialGradient>
  <radialGradient cx="0" cy="0" gradientTransform="matrix(72,73,-155,153,180.3000030517578,188.1999969482422)" gradientUnits="userSpaceOnUse" id="g" r="1">
   <stop stop-color="#fff" stop-opacity="0.2"/>
   <stop offset="1" stop-color="#fff" stop-opacity="0.4"/>
  </radialGradient>
  <radialGradient cx="0" cy="0" gradientTransform="matrix(20,118,-251,43,236.34146118164062,236.70001220703125)" gradientUnits="userSpaceOnUse" id="h" r="1">
   <stop stop-color="#fff" stop-opacity="0.1"/>
   <stop offset="1" stop-color="#fff" stop-opacity="0.3"/>
  </radialGradient>
  <radialGradient cx="0" cy="0" gradientTransform="matrix(-162,-85,268,-510,303.29998779296875,334.70001220703125)" gradientUnits="userSpaceOnUse" id="i" r="1">
   <stop stop-color="#fff" stop-opacity="0.2"/>
   <stop offset="0.5" stop-color="#fff" stop-opacity="0.2"/>
   <stop offset="1" stop-color="#fff" stop-opacity="0.3"/>
  </radialGradient>
  <filter color-interpolation-filters="sRGB" filterUnits="userSpaceOnUse" height="443.2" id="a" width="351.1" x="80.1" y="37">
   <feFlood flood-opacity="0" result="BackgroundImageFix"/>
   <feBlend in="SourceGraphic" in2="BackgroundImageFix"/>
   <feGaussianBlur result="effect1_foregroundBlur_744_9191" stdDeviation="6.5"/>
  </filter>
 </defs>
 <g class="layer">
  <title>Layer 1</title>
  <g id="svg_11">
   <g filter="url(#a)" id="svg_1">
    <path d="m323.2,400.5c-2.6,19 -21.3,33.9 -40,28.7c-26.5,-7.2 -57.2,-18.6 -84.8,-20.7l-42.4,-3.2a28,28 0 0 1 -18,-8.3l-73,-74.8a27.7,27.7 0 0 1 -5.4,-30.7s45,-98.6 46.8,-103.7c1.6,-5.1 7.8,-49.9 11.4,-73.9a28,28 0 0 1 9,-16.5l86.2,-77.2a28,28 0 0 1 40.6,3.4l72.6,91.6a29.5,29.5 0 0 1 6.2,18.3c0,17.3 1.5,53 11.2,76a301.3,301.3 0 0 0 35.6,58.2a14,14 0 0 1 1,15.6c-6.3,10.7 -18.9,31.3 -36.6,57.6a142.2,142.2 0 0 0 -20.5,59.6l0.1,0z" fill="#000" fill-opacity="0.3" id="svg_2"/>
   </g>
   <path d="m323.9,397.3c-2.6,19.1 -21.3,34 -40,28.9c-26.4,-7.3 -57,-18.7 -84.7,-20.8l-42.3,-3.2a27.9,27.9 0 0 1 -18,-8.4l-73,-75a27.9,27.9 0 0 1 -5.4,-31s45.1,-99 46.8,-104.2c1.7,-5.1 7.8,-50 11.4,-74.2a28,28 0 0 1 9,-16.6l86.2,-77.5a28,28 0 0 1 40.6,3.5l72.5,92a29.7,29.7 0 0 1 6.2,18.3c0,17.4 1.5,53.2 11.1,76.3a303,303 0 0 0 35.6,58.5a14,14 0 0 1 1.1,15.7c-6.4,10.8 -18.9,31.4 -36.7,57.9a143.3,143.3 0 0 0 -20.4,59.8z" fill="#6c31e3" id="arrow"/>
   <path d="m146.7,399.4c33.9,-68.7 33,-118 18.5,-153c-13.2,-32.4 -37.9,-52.8 -57.3,-65.5c-0.4,1.9 -1,3.7 -1.8,5.4l-45.6,101.5a27.9,27.9 0 0 0 5.5,31l72.9,75c2.3,2.3 5,4.2 7.8,5.6z" fill="url(#b)" id="svg_3"/>
   <path d="m238.9,260c9.1,0.9 18,2.9 26.8,6.1c27.8,10.4 53.1,33.8 74,78.9c1.5,-2.6 3,-5.1 4.6,-7.5a1222,1222 0 0 0 36.7,-57.9a14,14 0 0 0 -1,-15.7a303,303 0 0 1 -35.7,-58.5c-9.6,-23 -11,-58.9 -11.1,-76.3c0,-6.6 -2.1,-13.1 -6.2,-18.3l-72.5,-92l-1.2,-1.5c5.3,17.5 5,31.5 1.7,44.2c-3,11.8 -8.6,22.5 -14.5,33.8c-2,3.8 -4,7.7 -5.9,11.7a140,140 0 0 0 -15.8,58c-1,24.2 3.9,54.5 20,95l0.1,0z" fill="url(#c)" id="svg_4"/>
   <path d="m238.8,260c-16.1,-40.5 -21,-70.8 -20,-95c1,-24 8,-42 15.8,-58l6,-11.7c5.8,-11.3 11.3,-22 14.4,-33.8a78.5,78.5 0 0 0 -1.7,-44.2a28,28 0 0 0 -39.4,-2l-86.2,77.5a28,28 0 0 0 -9,16.6l-10.5,69.6c0,0.7 -0.2,1.3 -0.3,2c19.4,12.6 44,33 57.3,65.3c2.6,6.4 4.8,13.1 6.4,20.4a200,200 0 0 1 67.2,-6.8l0,0.1z" fill="url(#d)" id="svg_5"/>
   <path d="m284,426.2c18.6,5.1 37.3,-9.8 39.9,-29a153,153 0 0 1 15.9,-52.2c-21,-45.1 -46.3,-68.5 -74,-78.9c-29.5,-11 -61.6,-7.3 -94.2,0.6c7.3,33.1 3,76.4 -24.8,132.7c3.1,1.6 6.6,2.5 10.1,2.8l43.9,3.3c23.8,1.7 59.3,14 83.2,20.7z" fill="url(#e)" id="svg_6"/>
   <path clip-rule="evenodd" d="m219,163.5c-1.1,24 1.9,51.4 18,91.8l-5,-0.5c-14.5,-42.1 -17.7,-63.7 -16.6,-88c1,-24.3 8.9,-43 16.7,-59c2,-4 6.6,-11.5 8.6,-15.3c5.8,-11.3 9.7,-17.2 13,-27.5c4.8,-14.4 3.8,-21.2 3.2,-28c3.7,24.5 -10.4,45.8 -21,67.5a145,145 0 0 0 -17,59l0.1,0z" fill="url(#f)" fill-rule="evenodd" id="svg_7"/>
   <path clip-rule="evenodd" d="m170,248.1c2,4.4 3.7,8 4.9,13.5l-4.3,1c-1.7,-6.4 -3,-11 -5.5,-16.5c-14.6,-34.3 -38,-52 -57,-65c23,12.4 46.7,31.9 61.9,67z" fill="url(#g)" fill-rule="evenodd" id="svg_8"/>
   <path clip-rule="evenodd" d="m175.1,266c8,37.5 -1,85.2 -27.5,131.6c22.2,-46 33,-90.1 24,-131l3.5,-0.7l0,0.1z" fill="url(#h)" fill-rule="evenodd" id="svg_9"/>
   <path clip-rule="evenodd" d="m266.7,262.5c43.5,16.3 60.3,52 72.8,81.9c-15.5,-31.2 -37,-65.7 -74.4,-78.5c-28.4,-9.8 -52.4,-8.6 -93.5,0.7l-0.9,-4c43.6,-10 66.4,-11.2 96,0l0,-0.1z" fill="url(#i)" fill-rule="evenodd" id="svg_10"/>
  </g>
 </g>
</svg>